<svg width="17" height="15" viewBox="0 0 17 15" fill="none" xmlns="http://www.w3.org/2000/svg">
<path d="M3.10562 7.76388V3.62305H1.55281C1.14098 3.62305 0.746016 3.78665 0.454808 4.07785C0.163599 4.36906 0 4.76403 0 5.17586V14.4927C0.000770349 14.5889 0.0282958 14.6829 0.0794917 14.7642C0.130688 14.8456 0.203531 14.9111 0.289858 14.9534C0.373026 14.9912 0.464723 15.0063 0.555634 14.9973C0.646545 14.9882 0.73343 14.9552 0.807461 14.9016L3.47312 12.9399H10.4297C10.6259 12.9457 10.8212 12.9112 11.0035 12.8384C11.1857 12.7657 11.3511 12.6563 11.4894 12.517C11.6277 12.3778 11.736 12.2116 11.8074 12.0288C11.8789 11.846 11.9121 11.6505 11.9049 11.4544V10.8695H6.21124C5.38758 10.8695 4.59765 10.5423 4.01524 9.95988C3.43282 9.37746 3.10562 8.58754 3.10562 7.76388Z" fill="black"/>
<path d="M15.0105 0H6.21126C5.79943 0 5.40446 0.163599 5.11325 0.454808C4.82205 0.746016 4.65845 1.14098 4.65845 1.55281V7.76405C4.65845 8.17588 4.82205 8.57085 5.11325 8.86206C5.40446 9.15326 5.79943 9.31686 6.21126 9.31686H13.2248L15.6989 11.2372C15.7725 11.2916 15.8591 11.3255 15.9501 11.3355C16.041 11.3455 16.1329 11.3312 16.2165 11.2941C16.3046 11.2522 16.379 11.1862 16.4312 11.1037C16.4834 11.0213 16.5113 10.9258 16.5116 10.8283V1.55281C16.5118 1.14979 16.3553 0.762475 16.0752 0.47271C15.7951 0.182945 15.4133 0.0134339 15.0105 0Z" fill="black"/>
</svg>
