<svg width="17" height="15" viewBox="0 0 17 15" fill="none" xmlns="http://www.w3.org/2000/svg">
<path d="M16.4698 2.11675C15.7578 0.687671 13.7069 -0.481574 11.3212 0.199186C10.1812 0.521243 9.18663 1.2119 8.49988 2.15832C7.81313 1.2119 6.81852 0.521243 5.67853 0.199186C3.28755 -0.471181 1.24194 0.687671 0.52996 2.11675C-0.468937 4.11746 -0.0545005 6.36761 1.76264 8.80483C3.1866 10.712 5.22159 12.6452 8.17577 14.8901C8.26913 14.9613 8.38414 15 8.50254 15C8.62094 15 8.73594 14.9613 8.82931 14.8901C11.7782 12.6504 13.8185 10.7328 15.2424 8.80483C17.0543 6.36761 17.4687 4.11746 16.4698 2.11675Z" fill="black"/>
</svg>
