<svg width="27" height="27" viewBox="0 0 27 27" fill="none" xmlns="http://www.w3.org/2000/svg">
<path d="M26.6026 4.36342L23.5912 1.38079C23.3324 1.13636 22.9885 1 22.6309 1C22.2732 1 21.9293 1.13636 21.6705 1.38079L18.9928 4.04098H4.62777C4.19606 4.04098 3.78203 4.21084 3.47676 4.51319C3.1715 4.81554 3 5.22562 3 5.65321V23.3878C3 23.8154 3.1715 24.2254 3.47676 24.5278C3.78203 24.8301 4.19606 25 4.62777 25H22.5332C22.9649 25 23.3789 24.8301 23.6842 24.5278C23.9895 24.2254 24.161 23.8154 24.161 23.3878V8.68421L26.6026 6.26586C26.8571 6.01345 27 5.67134 27 5.31464C27 4.95795 26.8571 4.61583 26.6026 4.36342ZM15.0699 15.4314L11.6597 16.1811L12.4736 12.8357L20.2462 5.12117L22.875 7.72493L15.0699 15.4314ZM23.754 6.80596L21.1252 4.2022L22.6309 2.71089L25.2597 5.31464L23.754 6.80596Z" fill="black"/>
</svg>
