<svg width="28" height="28" viewBox="0 0 28 28" fill="none" xmlns="http://www.w3.org/2000/svg">
<path fill-rule="evenodd" clip-rule="evenodd" d="M20.3623 11.4536C20.3623 12.6235 20.1319 13.7819 19.6842 14.8628C19.2365 15.9437 18.5803 16.9258 17.753 17.753C16.9258 18.5803 15.9437 19.2365 14.8628 19.6842C13.7819 20.1319 12.6235 20.3623 11.4536 20.3623C10.2837 20.3623 9.12519 20.1319 8.04433 19.6842C6.96347 19.2365 5.98138 18.5803 5.15413 17.753C4.32687 16.9258 3.67066 15.9437 3.22295 14.8628C2.77524 13.7819 2.54481 12.6235 2.54481 11.4536C2.54481 9.09082 3.48341 6.82484 5.15413 5.15413C6.82484 3.48341 9.09082 2.54481 11.4536 2.54481C13.8163 2.54481 16.0823 3.48341 17.753 5.15413C19.4237 6.82484 20.3623 9.09082 20.3623 11.4536ZM18.6035 20.403C16.3163 22.2303 13.4162 23.1125 10.4989 22.8683C7.58158 22.6242 4.86848 21.2723 2.91679 19.0903C0.9651 16.9082 -0.0770248 14.0618 0.00444017 11.1354C0.0859052 8.20901 1.28478 5.4249 3.35484 3.35484C5.4249 1.28478 8.20901 0.0859052 11.1354 0.00444017C14.0618 -0.0770248 16.9082 0.9651 19.0903 2.91679C21.2723 4.86848 22.6242 7.58158 22.8683 10.4989C23.1125 13.4162 22.2303 16.3163 20.403 18.6035L27.6268 25.8247C27.7451 25.943 27.839 26.0835 27.903 26.2381C27.967 26.3927 28 26.5584 28 26.7257C28 26.8931 27.967 27.0588 27.903 27.2134C27.839 27.368 27.7451 27.5084 27.6268 27.6268C27.5084 27.7451 27.368 27.839 27.2134 27.903C27.0588 27.967 26.8931 28 26.7257 28C26.5584 28 26.3927 27.967 26.2381 27.903C26.0835 27.839 25.943 27.7451 25.8247 27.6268L18.606 20.403H18.6035Z" fill="black"/>
</svg>
